<?xml version="1.0" encoding="UTF-8"?>
<svg version="1.1" xmlns="http://www.w3.org/2000/svg" width="1280" height="1280">
<path d="M0 0 C422.4 0 844.8 0 1280 0 C1280 422.4 1280 844.8 1280 1280 C857.6 1280 435.2 1280 0 1280 C0 857.6 0 435.2 0 0 Z " fill="#FDFDFD" transform="translate(0,0)"/>
<path d="M0 0 C1.27617188 0.26683594 2.55234375 0.53367187 3.8671875 0.80859375 C13.71722781 3.11239736 22.20050719 7.15684931 31 12 C31.9384375 12.50660156 32.876875 13.01320313 33.84375 13.53515625 C53.49645441 24.69863866 67.89944511 42.09165993 78 62 C78.45503906 62.8146875 78.91007813 63.629375 79.37890625 64.46875 C92.68579087 89.12455801 97.97989408 116.46153965 100.26068115 144.07312012 C101.64801856 160.66274474 103.69412682 176.82693942 107.4375 193.0625 C107.63069824 193.90780273 107.82389648 194.75310547 108.02294922 195.62402344 C109.28025493 200.82362402 110.96172417 205.67549371 113.01586914 210.61303711 C113.90623116 212.77256811 114.71919346 214.9396385 115.5 217.140625 C121.73100738 234.38210565 130.77727904 250.4569873 141.08300781 265.59033203 C146.35077225 273.32996099 151.36716178 281.14630808 156.0625 289.25 C156.53977539 290.07242187 157.01705078 290.89484375 157.50878906 291.7421875 C162.11726607 299.78265212 163.07825306 306.78916028 162 316 C158.72408931 324.62304234 152.62341181 329.30081148 145 334 C144.38382813 334.49628906 143.76765625 334.99257813 143.1328125 335.50390625 C132.71521618 342.81148755 118.40414579 344.63488388 106.16430664 346.64013672 C104.45412899 346.92449113 102.75077136 347.24984573 101.05078125 347.58984375 C76.45942199 350.8959804 51.04070887 345.93198962 29 335 C27.70761704 334.3828863 26.41462371 333.7670496 25.12109375 333.15234375 C15.94496715 328.74264648 7.39713043 323.7476148 -1 318 C-1.66644531 317.54608887 -2.33289063 317.09217773 -3.01953125 316.62451172 C-12.80047369 309.93073594 -22.19237325 302.8551878 -31.35546875 295.34033203 C-32.81850226 294.14792497 -34.29873892 292.97669588 -35.78125 291.80859375 C-48.65967905 281.58731045 -60.26322822 269.82721502 -71.91812134 258.2571106 C-72.95547617 257.22780084 -73.99430646 256.19997549 -75.03475952 255.17379761 C-81.82540556 248.46670245 -88.0710133 241.49168246 -94 234 C-95.04806085 232.72172302 -96.09851922 231.44540452 -97.15234375 230.171875 C-112.35305954 211.58348002 -124.90445503 191.24453932 -134 169 C-134.51691406 167.82566406 -135.03382813 166.65132812 -135.56640625 165.44140625 C-137.66870995 160.3947317 -139.0796388 155.24213841 -140.46630859 149.95996094 C-140.98161607 148.06751427 -141.56200044 146.19315901 -142.14453125 144.3203125 C-145.20751553 133.69097234 -145.37671878 123.16522944 -145.375 112.1875 C-145.37681274 111.43651031 -145.37862549 110.68552063 -145.38049316 109.91177368 C-145.37706413 97.34557995 -144.53226131 85.15558606 -140.375 73.1875 C-140.11630127 72.4332373 -139.85760254 71.67897461 -139.59106445 70.90185547 C-134.99841501 57.96888975 -128.83123698 46.56002725 -120 36 C-119.17886719 35.00355469 -118.35773438 34.00710938 -117.51171875 32.98046875 C-103.05276448 16.01471571 -83.43601324 5.40350896 -62 0 C-60.73414063 -0.3196875 -59.46828125 -0.639375 -58.1640625 -0.96875 C-39.29765665 -5.19491877 -18.76491966 -4.27066894 0 0 Z " fill="#F5AE0F" transform="translate(554,385)"/>
<path d="M0 0 C0.7439502 -0.00040283 1.48790039 -0.00080566 2.25439453 -0.0012207 C34.15520076 0.0978077 62.08483074 10.80193021 84.6875 33.4375 C107.77121551 56.8775679 115.29060217 88.04919063 115.24511719 120.06152344 C114.60614578 146.06839401 104.73953606 170.73482742 92.6875 193.4375 C92.23246094 194.34886719 91.77742187 195.26023437 91.30859375 196.19921875 C83.63277776 211.16133171 73.10468996 224.75146448 62.28173828 237.55078125 C60.73729377 239.37857102 59.21008726 241.21971504 57.68359375 243.0625 C46.09282117 256.89303539 33.39098236 270.43151213 19.11328125 281.51171875 C16.38518252 283.67750405 13.86127101 286.00125189 11.3125 288.375 C5.92428377 293.3269544 0.24484856 297.75226899 -5.59814453 302.14355469 C-8.62421848 304.42754671 -11.62274442 306.74734836 -14.625 309.0625 C-15.72514471 309.90900456 -16.825394 310.75537324 -17.92578125 311.6015625 C-18.71339844 312.20742188 -19.50101563 312.81328125 -20.3125 313.4375 C-22.3125 312.4375 -22.3125 312.4375 -23.03930664 310.7578125 C-23.26481201 310.03335937 -23.49031738 309.30890625 -23.72265625 308.5625 C-23.98530273 307.75071289 -24.24794922 306.93892578 -24.51855469 306.10253906 C-24.80118164 305.22307617 -25.08380859 304.34361328 -25.375 303.4375 C-30.37829435 288.60762966 -37.65924603 276.05742079 -46.62890625 263.30859375 C-72.65870998 226.11655967 -85.15590028 186.26278513 -88.25 141.375 C-90.06056675 115.96859934 -95.87121489 92.3035572 -105.73535156 68.81762695 C-109.28286326 60.36165877 -109.28286326 60.36165877 -109.3125 57.4375 C-94.82655841 31.43523484 -65.09983202 12.73722646 -37.26171875 4.5390625 C-24.87576538 1.29397485 -12.76487092 -0.00711373 0 0 Z " fill="#F59C17" transform="translate(756.3125,381.5625)"/>
<path d="M0 0 C3.50134892 2.68884892 3.50134892 2.68884892 5.0625 4.25 C5.12308594 3.46753906 5.18367187 2.68507813 5.24609375 1.87890625 C5.37177734 0.36103516 5.37177734 0.36103516 5.5 -1.1875 C5.62181641 -2.70150391 5.62181641 -2.70150391 5.74609375 -4.24609375 C6.0625 -6.75 6.0625 -6.75 7.0625 -7.75 C9.35401417 -7.83790975 11.64822524 -7.85694038 13.94140625 -7.84765625 C14.97139992 -7.84553383 14.97139992 -7.84553383 16.02220154 -7.84336853 C18.22317801 -7.83775479 20.42405409 -7.82520007 22.625 -7.8125 C24.11393083 -7.80748676 25.60286324 -7.80292355 27.09179688 -7.79882812 C30.74873075 -7.78778093 34.40560558 -7.77050713 38.0625 -7.75 C38.17982783 7.88042269 38.26772819 23.5107245 38.32156086 39.14147949 C38.347232 46.40078543 38.382167 53.65981615 38.43969727 60.91894531 C38.48987559 67.25348681 38.52187138 73.5878288 38.53294247 79.92256355 C38.53940406 83.27022081 38.55706264 86.61685999 38.59115028 89.9644165 C38.7772488 109.01099712 38.81073576 126.46322844 25.0625 141.25 C8.68608497 156.53847138 -12.69527755 158.09838859 -34.05322266 157.42480469 C-47.68632679 156.59855595 -61.59245421 150.35461848 -70.9375 140.25 C-77.4095823 132.33202697 -81.9375 124.60703047 -81.9375 114.25 C-70.7175 114.25 -59.4975 114.25 -47.9375 114.25 C-46.6175 116.89 -45.2975 119.53 -43.9375 122.25 C-42.01398216 124.32786038 -42.01398216 124.32786038 -39.875 125.6875 C-38.86759766 126.39712891 -38.86759766 126.39712891 -37.83984375 127.12109375 C-33.30640665 129.81136751 -28.84884213 129.46888578 -23.75 129.5 C-22.92435547 129.520625 -22.09871094 129.54125 -21.24804688 129.5625 C-14.34543751 129.60601527 -9.14454007 128.21795641 -3.1875 124.5625 C1.84871989 119.38638511 4.20855249 112.86576841 4.16015625 105.703125 C4.15693359 104.85878906 4.15371094 104.01445313 4.15039062 103.14453125 C4.14201172 102.27183594 4.13363281 101.39914062 4.125 100.5 C4.12048828 99.61183594 4.11597656 98.72367188 4.11132812 97.80859375 C4.099574 95.62232671 4.08314249 93.43619821 4.0625 91.25 C3.06283203 92.04664063 3.06283203 92.04664063 2.04296875 92.859375 C-11.39990996 103.16244847 -24.39912581 105.47102247 -40.9375 104.25 C-55.78065504 101.6860419 -67.79216655 92.71564603 -76.75390625 80.84375 C-85.64517772 67.11687475 -87.60385217 49.96931199 -85.51171875 34 C-82.25522489 18.97617557 -73.54730079 6.68933311 -60.984375 -1.91796875 C-42.66436682 -12.93346085 -17.68381896 -12.09682961 0 0 Z " fill="#31404B" transform="translate(784.9375,828.75)"/>
<path d="M0 0 C3.82766466 3.19436015 7.00477975 6.93834753 10.1484375 10.79296875 C10.57253906 10.28507813 10.99664062 9.7771875 11.43359375 9.25390625 C19.31345561 0.00589255 26.77163844 -6.2634154 39.1484375 -8.20703125 C52.70341311 -9.17185448 64.42881988 -7.04376194 75.1484375 1.79296875 C83.18107092 9.07663868 88.70218742 20.80723824 89.38894653 31.55796814 C89.39465837 32.92397614 89.38962378 34.29005906 89.37548828 35.65600586 C89.37578033 36.40805298 89.37607239 37.1601001 89.37637329 37.93493652 C89.37499068 40.39684987 89.35948045 42.85845266 89.34375 45.3203125 C89.34001606 47.03666519 89.33717089 48.75302002 89.33517456 50.46937561 C89.32756809 54.96894296 89.30794548 59.46837953 89.2857666 63.96789551 C89.2652436 68.56646964 89.25615908 73.16506507 89.24609375 77.76367188 C89.22469656 86.77350396 89.18953899 95.78320498 89.1484375 104.79296875 C78.2584375 104.79296875 67.3684375 104.79296875 56.1484375 104.79296875 C56.11105469 100.14460937 56.07367188 95.49625 56.03515625 90.70703125 C56.00484481 87.74475611 55.97367638 84.78253875 55.93945312 81.8203125 C55.88533136 77.12877481 55.83421467 72.43735142 55.80200195 67.74560547 C55.77580235 63.9587778 55.73528565 60.17233869 55.68525124 56.38575363 C55.66869417 54.94828537 55.65711095 53.51075008 55.65082359 52.07320023 C55.61130677 43.86108052 55.04279605 36.54596116 52.1484375 28.79296875 C51.8596875 27.80296875 51.5709375 26.81296875 51.2734375 25.79296875 C49.71001319 23.01354776 48.15259062 22.70120109 45.1484375 21.79296875 C44.4059375 21.42171875 43.6634375 21.05046875 42.8984375 20.66796875 C38.1528084 19.15799585 33.61174076 18.782494 28.9296875 20.703125 C22.2988039 24.55052201 19.11397482 29.80850924 16.79037476 36.97091675 C15.45261843 42.85189327 15.663293 48.88720804 15.63671875 54.890625 C15.61984364 56.33509316 15.60168966 57.77954689 15.58232117 59.22398376 C15.53512175 62.9967701 15.50511927 66.76949791 15.47888184 70.54248047 C15.44364132 75.08491083 15.38671549 79.62711656 15.33348846 84.16936493 C15.25532752 91.04386966 15.20445648 97.91808753 15.1484375 104.79296875 C4.2584375 104.79296875 -6.6315625 104.79296875 -17.8515625 104.79296875 C-17.86574219 99.85585938 -17.87992187 94.91875 -17.89453125 89.83203125 C-17.91460967 86.68742993 -17.93614697 83.542972 -17.96289062 80.3984375 C-18.00511854 75.4170986 -18.04220396 70.43612355 -18.04711914 65.45458984 C-18.05142605 61.43419603 -18.0800842 57.41461961 -18.12499428 53.39448166 C-18.13789347 51.86769768 -18.14230407 50.34081549 -18.13771629 48.81398392 C-18.11735968 39.97480041 -18.41742706 32.16894875 -23.8515625 24.79296875 C-28.69691451 20.25495424 -33.94486823 19.43715936 -40.34765625 19.51171875 C-45.07374441 20.04257421 -47.69110288 22.66664029 -50.9765625 25.85546875 C-56.86698553 35.08379817 -57.45449824 44.38391193 -57.4609375 55.0859375 C-57.47595306 56.52755051 -57.49268716 57.96914653 -57.51104736 59.41072083 C-57.55435553 63.16709269 -57.57463765 66.92323271 -57.58978271 70.67980957 C-57.6129642 75.20728617 -57.66535048 79.73451172 -57.71272278 84.26178741 C-57.78112417 91.10557923 -57.81290497 97.94865377 -57.8515625 104.79296875 C-68.7415625 104.79296875 -79.6315625 104.79296875 -90.8515625 104.79296875 C-90.8515625 67.83296875 -90.8515625 30.87296875 -90.8515625 -7.20703125 C-79.9615625 -7.20703125 -69.0715625 -7.20703125 -57.8515625 -7.20703125 C-57.3565625 -1.26703125 -57.3565625 -1.26703125 -56.8515625 4.79296875 C-55.5109375 3.53484375 -54.1703125 2.27671875 -52.7890625 0.98046875 C-37.85802312 -12.2268625 -15.7996317 -11.09396522 0 0 Z " fill="#30404A" transform="translate(408.8515625,828.20703125)"/>
<path d="M0 0 C1.18335938 0.43505859 1.18335938 0.43505859 2.390625 0.87890625 C17.01630642 6.82369853 27.74370134 17.47216742 34.25390625 31.75 C40.04332401 47.24223985 38.39962645 65.0984565 31.6796875 79.91015625 C26.58663174 90.0266905 19.74464886 97.30090553 10 103 C8.91203125 103.66902344 7.8240625 104.33804688 6.703125 105.02734375 C-7.95635479 113.32608682 -28.62512269 113.19989204 -44.47583008 108.83032227 C-59.56370632 104.2268175 -71.57041987 95.46165003 -79.6015625 81.76953125 C-86.53921274 68.02988315 -89.03288321 50.38231464 -84.4375 35.4375 C-78.27110755 20.12932293 -67.56286051 9.49334615 -53 2 C-37.02476467 -4.49521907 -16.33614604 -6.21948044 0 0 Z " fill="#30404B" transform="translate(924,823)"/>
<path d="M0 0 C0.86496094 -0.020625 1.72992187 -0.04125 2.62109375 -0.0625 C14.76800811 -0.13534506 25.46904332 4.74871534 34.26953125 13.00390625 C45.88710099 25.39741757 46.98876692 41.59606559 46.765625 57.68359375 C46.75814018 59.29882599 46.75245789 60.91406747 46.74847412 62.52931213 C46.7333936 66.72647349 46.69427013 70.92305769 46.6496582 75.11999512 C46.60101792 80.18460416 46.58308745 85.24940905 46.55984497 90.3141861 C46.52140287 97.95985555 46.44462976 105.60426534 46.375 113.25 C35.485 113.25 24.595 113.25 13.375 113.25 C13.34921875 108.51785156 13.3234375 103.78570313 13.296875 98.91015625 C13.27168433 95.89773361 13.24533459 92.88540918 13.21484375 89.87304688 C13.16664252 85.10017631 13.12254805 80.32753331 13.10400391 75.55444336 C13.08876931 71.70270333 13.05420536 67.85156191 13.00669098 64.00008965 C12.99194677 62.53667872 12.98396301 61.0731823 12.98311615 59.60969734 C12.97182992 49.87823335 12.32386575 42.15940066 6.0625 34.375 C-1.56265935 28.34580424 -9.10663574 28.33598489 -18.625 29.25 C-23.92962618 30.65105575 -26.73297887 34.23741596 -29.484375 38.76171875 C-33.48824196 47.49618194 -34.09297999 55.34359553 -34.13671875 64.91015625 C-34.15359534 66.30978438 -34.17174951 67.70939764 -34.19111633 69.10899353 C-34.23829982 72.76341092 -34.26831244 76.41776796 -34.29455566 80.0723877 C-34.32452253 83.81335279 -34.37083933 87.55411463 -34.41601562 91.29492188 C-34.50321154 98.61329534 -34.563426 105.93118718 -34.625 113.25 C-45.185 113.25 -55.745 113.25 -66.625 113.25 C-66.625 76.29 -66.625 39.33 -66.625 1.25 C-56.065 1.25 -45.505 1.25 -34.625 1.25 C-34.13 7.685 -34.13 7.685 -33.625 14.25 C-32.3875 13.033125 -31.15 11.81625 -29.875 10.5625 C-21.28817874 2.87525049 -11.23749821 0.06523947 0 0 Z " fill="#31414B" transform="translate(638.625,819.75)"/>
<path d="M0 0 C7.62523623 -0.04690359 15.25045702 -0.08215739 22.87580585 -0.10362434 C26.41880296 -0.11394149 29.96169945 -0.12787146 33.50463867 -0.15087891 C86.45031769 -0.48526161 86.45031769 -0.48526161 110 12 C110.99386719 12.50144531 111.98773438 13.00289063 113.01171875 13.51953125 C132.75158245 24.12486979 147.10576364 43.0588425 155.30859375 63.62109375 C156.20650041 66.71050142 156.5660049 69.81590017 157 73 C156.14538177 72.8681002 156.14538177 72.8681002 155.27349854 72.73353577 C140.04344537 70.43549485 125.13879875 69.53232534 109.75 69.4375 C76.68397463 69.17736519 45.88759208 67.40728903 20.375 43.8125 C13.08435535 36.03348681 7.8909672 27.6176976 4 17.75 C3.70931641 17.0180542 3.41863281 16.2861084 3.11914062 15.53198242 C1.20210659 10.36863924 0.51993785 5.46872396 0 0 Z " fill="#7EB71B" transform="translate(398,300)"/>
<path d="M0 0 C0.18579491 16.6420898 -9.82889583 32.20827894 -21 44 C-38.1546659 60.77223704 -61.06026929 66.30687357 -84.3984375 67.51953125 C-85.21103531 67.56190918 -86.02363312 67.60428711 -86.8608551 67.64794922 C-98.96612159 68.23704159 -111.08678509 68.35840973 -123.20336914 68.55224609 C-139.62962338 68.74949983 -139.62962338 68.74949983 -156 70 C-154.83270954 52.8797399 -142.28957858 36.60292189 -130.38671875 25.07421875 C-94.68408118 -5.95376905 -44.19108908 -0.59673345 0 0 Z " fill="#19973A" transform="translate(880,301)"/>
<path d="M0 0 C0.26296875 0.5465625 0.5259375 1.093125 0.796875 1.65625 C2.17521079 4.34131972 3.70329018 6.90821598 5.25 9.5 C21.82134657 37.9080227 27.50939113 67.7755567 31.9921875 100.05078125 C39.38609851 153.23431756 60.01113921 212.01113921 99 251 C98.64801175 254.50332859 97.90335694 255.08788146 95.15625 257.5859375 C93.94607378 258.52675838 92.72678524 259.45594158 91.5 260.375 C90.87013184 260.85815674 90.24026367 261.34131348 89.59130859 261.83911133 C84.86489425 265.43372147 80.03241306 268.84475689 75 272 C72.56359536 266.27844319 70.16802951 260.58468204 68.1875 254.6875 C64.14705805 243.49611713 57.9298577 233.6532163 51.13623047 223.96630859 C24.53138989 185.96070271 11.23261728 145.92811315 8.0625 99.9375 C6.25193325 74.53109934 0.44128511 50.8660572 -9.42285156 27.38012695 C-13.02769051 18.78751159 -13.02769051 18.78751159 -13 16 C-11.49928956 13.55986846 -10.06709252 11.54955335 -8.25 9.375 C-7.79367187 8.80265625 -7.33734375 8.2303125 -6.8671875 7.640625 C-4.70761431 4.95676237 -2.51173513 2.36103102 0 0 Z " fill="#EC8409" transform="translate(660,423)"/>
<path d="M0 0 C11.22 0 22.44 0 34 0 C34 36.96 34 73.92 34 112 C22.78 112 11.56 112 0 112 C0 75.04 0 38.08 0 0 Z " fill="#34434D" transform="translate(517,821)"/>
<path d="M0 0 C6.41914439 4.14955313 10.95215276 9.88793657 13.33984375 17.1796875 C15.48443151 27.70766378 13.50184906 37.11458817 8.1875 46.3125 C0.16348926 53.70303621 -7.51541838 55.85979826 -18.1953125 55.703125 C-26.77534608 55.12066841 -32.49665485 50.79577751 -38.1875 44.5 C-43.37240628 36.49473262 -43.89956575 28.81788891 -43.1875 19.5 C-41.14695541 11.1903124 -35.27056677 4.29124133 -28.3125 -0.5 C-19.86422483 -4.73860381 -8.32211226 -4.15536385 0 0 Z " fill="#F9F9FA" transform="translate(776.1875,849.5)"/>
<path d="M0 0 C6.11642009 4.77568307 9.46221239 10.13598017 11.15625 17.68359375 C12.05696738 29.36952445 11.63248108 37.85679146 3.84375 46.99609375 C-0.46689375 51.78820556 -4.16801015 54.40594831 -10.68359375 55.08203125 C-12.04947882 55.08990379 -13.41554025 55.08185087 -14.78125 55.05859375 C-15.45865234 55.07019531 -16.13605469 55.08179688 -16.83398438 55.09375 C-24.91376015 55.04726999 -30.3035038 51.80321598 -36.05078125 46.51171875 C-41.72369484 40.72757156 -44.11983059 34.46584976 -44.21875 26.43359375 C-44.0359438 16.98143804 -41.11272405 10.23100735 -34.64453125 3.375 C-25.49436007 -5.21941241 -10.84988012 -6.38334614 0 0 Z " fill="#F9FAFA" transform="translate(915.84375,851.31640625)"/>
<path d="M0 0 C1.44632813 -0.00386719 1.44632813 -0.00386719 2.921875 -0.0078125 C5.25 0.125 5.25 0.125 6.25 1.125 C6.3828125 2.9375 6.3828125 2.9375 6.375 5.125 C6.37886719 6.2078125 6.37886719 6.2078125 6.3828125 7.3125 C6.25 9.125 6.25 9.125 5.25 10.125 C3.94230989 10.39904895 2.6284294 10.64372946 1.3125 10.875 C-9.28959062 13.19943312 -17.40334634 19.45693827 -25.75 26.125 C-26.85021484 26.99125 -26.85021484 26.99125 -27.97265625 27.875 C-49.2322348 45.45747451 -61.2849229 71.78971538 -65.171875 98.51953125 C-65.75 102.125 -65.75 102.125 -66.75 104.125 C-67.41 104.125 -68.07 104.125 -68.75 104.125 C-72.89196362 79.27321828 -66.99972162 55.33534866 -53.75 34.125 C-50.93627834 30.27674835 -47.93134305 26.67320063 -44.75 23.125 C-44.20988281 22.50238281 -43.66976563 21.87976563 -43.11328125 21.23828125 C-32.09435799 9.33118282 -16.52879496 -0.04467242 0 0 Z " fill="#FBE783" transform="translate(498.75,408.875)"/>
<path d="M0 0 C17.45515768 2.94047459 32.52151767 15.87886742 42.8359375 29.68359375 C58.1347199 51.22063265 62.76496773 75.40696215 59.52734375 101.40625 C58.04637552 109.84865572 55.2985449 122.7014551 49 129 C49.02618408 127.94425781 49.05236816 126.88851562 49.0793457 125.80078125 C50.1203803 79.68364117 41.22202949 42.76295534 8.625 8.50390625 C6.77052772 6.64602501 4.89588967 4.81540378 3 3 C1.9977247 2.00228049 0.99695588 1.00303488 0 0 Z " fill="#F9DB86" transform="translate(789,405)"/>
<path d="M0 0 C4.54207981 2.86636104 7.67451627 7.04228518 9.01171875 12.26953125 C9.81739731 18.71495969 8.95892674 24.00276244 5.01171875 29.26953125 C-0.75425559 34.55063957 -6.10467445 35.75069814 -13.83984375 35.67578125 C-19.67093084 34.92338292 -23.4871748 31.93331129 -27.4296875 27.734375 C-31.06142969 22.58413433 -30.8039322 16.29862123 -29.98828125 10.26953125 C-27.63251682 5.18108008 -23.52926015 1.50405682 -18.98828125 -1.73046875 C-12.29503375 -3.96155125 -6.26927792 -3.09634494 0 0 Z " fill="#32424C" transform="translate(544.98828125,773.73046875)"/>
<path d="M0 0 C0.66 0 1.32 0 2 0 C2 25.41 2 50.82 2 77 C-12.85 76.505 -12.85 76.505 -28 76 C-28 75.67 -28 75.34 -28 75 C-18.76 75 -9.52 75 0 75 C0 50.25 0 25.5 0 0 Z " fill="#3B4B53" transform="translate(496,856)"/>
<path d="M0 0 C9.57 0 19.14 0 29 0 C29 11.45608091 24.75283002 20.25854117 19 30 C18.67 30 18.34 30 18 30 C17.49954559 23.6192063 17.49954559 23.6192063 19.84375 20.71875 C22.38481659 17.51479647 23.44944781 14.55303011 24.75 10.6875 C24.97042969 10.04232422 25.19085937 9.39714844 25.41796875 8.73242188 C25.95442985 7.15802516 26.47851357 5.57941996 27 4 C26.01 4.33 25.02 4.66 24 5 C23.67 4.01 23.34 3.02 23 2 C22.01 2.01160156 21.02 2.02320313 20 2.03515625 C13.26199467 2.0897219 6.67000397 2.08898024 0 1 C0 0.67 0 0.34 0 0 Z " fill="#329E2A" transform="translate(851,301)"/>
<path d="M0 0 C0.33 0 0.66 0 1 0 C1.62212143 16.82024914 0.85108714 31.83548462 -4 48 C-5.14648193 44.32641353 -4.55458594 42.0053988 -3.54150391 38.30786133 C-1.33167637 28.88969193 -1.70270665 18.70395216 -1.39453125 9.08203125 C-1.35714844 8.05207031 -1.31976562 7.02210938 -1.28125 5.9609375 C-1.23581055 4.56560791 -1.23581055 4.56560791 -1.18945312 3.14208984 C-1 1 -1 1 0 0 Z " fill="#DFAA50" transform="translate(870,485)"/>
<path d="M0 0 C0.556875 0.2475 1.11375 0.495 1.6875 0.75 C1.006875 1.28625 0.32625 1.8225 -0.375 2.375 C-8.74289159 9.14052937 -15.80623176 16.14372588 -22.3125 24.75 C-22.6425 23.76 -22.9725 22.77 -23.3125 21.75 C-19.65252438 15.87944082 -7.63596568 -0.8255098 0 0 Z " fill="#14854B" transform="translate(759.3125,320.25)"/>
<path d="M0 0 C0.66 0.33 1.32 0.66 2 1 C-4.49132279 10.54027743 -12.14357167 20.20357323 -23 25 C-22.875 23.25 -22.875 23.25 -22 21 C-16.77777778 17 -16.77777778 17 -14 17 C-13.67 16.01 -13.34 15.02 -13 14 C-11.8553125 13.1028125 -11.8553125 13.1028125 -10.6875 12.1875 C-7.69611133 9.75264875 -6.08306034 7.22538376 -4 4 C-2.70317626 2.63113049 -1.38176866 1.2830709 0 0 Z " fill="#4CA73C" transform="translate(867,331)"/>
<path d="M0 0 C0.66 0 1.32 0 2 0 C-0.5013198 8.81670881 -3.84793014 16.83903511 -8 25 C-8.33 25 -8.66 25 -9 25 C-9.45576348 19.18901567 -8.54518414 17.41863531 -5 13 C-4.00347372 10.76306075 -3.08688416 8.48893145 -2.25 6.1875 C-1.82203125 5.02605469 -1.3940625 3.86460937 -0.953125 2.66796875 C-0.63859375 1.78753906 -0.3240625 0.90710938 0 0 Z " fill="#49AA38" transform="translate(878,306)"/>
<path d="M0 0 C0 3 0 3 -2.4140625 5.62890625 C-3.47643313 6.61539327 -4.54715263 7.59294699 -5.625 8.5625 C-6.40810547 9.3040332 -6.40810547 9.3040332 -7.20703125 10.06054688 C-10.59901251 13.15520632 -13.45596581 14.84693427 -18 16 C-14.25333462 12.14044075 -10.31478678 8.63380746 -6.1875 5.1875 C-5.59001953 4.68541016 -4.99253906 4.18332031 -4.37695312 3.66601562 C-2.91971152 2.44193268 -1.46010135 1.22067038 0 0 Z " fill="#F9F2DB" transform="translate(771,666)"/>
<path d="M0 0 C-1.65 0.33 -3.3 0.66 -5 1 C-5 1.66 -5 2.32 -5 3 C-10.30039859 4.66554027 -15.47293087 6.27275406 -21 7 C-17.74397004 4.2866417 -14.43846872 2.78564147 -10.5 1.25 C-9.3759375 0.80140625 -8.251875 0.3528125 -7.09375 -0.109375 C-4.08998328 -0.97409572 -2.84198054 -1.14236473 0 0 Z " fill="#E6B740" transform="translate(488,388)"/>
<path d="M0 0 C0.99 0.33 1.98 0.66 3 1 C-0.20760251 4.80635497 -3.40746109 8.54563567 -7 12 C-7.99 11.67 -8.98 11.34 -10 11 C-9.01 10.67 -8.02 10.34 -7 10 C-7 8.68 -7 7.36 -7 6 C-6.360625 5.71125 -5.72125 5.4225 -5.0625 5.125 C-2.84793921 4.17176549 -2.84793921 4.17176549 -2 2 C-1.34 2 -0.68 2 0 2 C0 1.34 0 0.68 0 0 Z " fill="#E7A630" transform="translate(791,644)"/>
<path d="M0 0 C0 3 0 3 -1.75 5.04296875 C-2.4925 5.75066406 -3.235 6.45835938 -4 7.1875 C-4.7425 7.90292969 -5.485 8.61835937 -6.25 9.35546875 C-7.11625 10.16951172 -7.11625 10.16951172 -8 11 C-8.66 10.34 -9.32 9.68 -10 9 C-8.89902432 7.87187697 -7.79408444 6.74762189 -6.6875 5.625 C-6.07261719 4.99851562 -5.45773437 4.37203125 -4.82421875 3.7265625 C-3 2 -3 2 0 0 Z " fill="#F6F6F6" transform="translate(1077,1208)"/>
<path d="M0 0 C0.66 0.66 1.32 1.32 2 2 C1.01 2.33 0.02 2.66 -1 3 C-1.4640625 3.928125 -1.4640625 3.928125 -1.9375 4.875 C-3.20298687 7.40597375 -4.67272837 8.44848558 -7 10 C-7.66 9.34 -8.32 8.68 -9 8 C-8.071875 7.4225 -7.14375 6.845 -6.1875 6.25 C-3.40184158 4.28365288 -1.81261304 2.81962028 0 0 Z " fill="#3B4653" transform="translate(785,893)"/>
<path d="M0 0 C1.98 0 3.96 0 6 0 C6.66 1.32 7.32 2.64 8 4 C5.03 3.67 2.06 3.34 -1 3 C-0.67 2.01 -0.34 1.02 0 0 Z " fill="#8DBD34" transform="translate(547,369)"/>
<path d="M0 0 C2.02535744 0.51261259 4.02483064 1.12479356 6.01953125 1.74609375 C3.11860623 3.68004376 2.12278388 4.04741316 -1.16796875 4.37109375 C-2.42609375 4.49484375 -3.68421875 4.61859375 -4.98046875 4.74609375 C-4.98046875 2.74609375 -4.98046875 2.74609375 -3.98046875 0.99609375 C-1.98046875 -0.25390625 -1.98046875 -0.25390625 0 0 Z " fill="#339C3C" transform="translate(819.98046875,361.25390625)"/>
<path d="M0 0 C1.32 0.33 2.64 0.66 4 1 C3.071875 1.763125 2.14375 2.52625 1.1875 3.3125 C-0.98276101 5.11848552 -3.05568065 6.9476629 -5 9 C-5 4.61031544 -2.87194899 3.23094261 0 0 Z " fill="#394651" transform="translate(716,833)"/>
<path d="M0 0 C1.125 1.625 1.125 1.625 2 4 C1.16933916 7.46108684 0.52986895 9.47013105 -2 12 C-2.05422947 10.5629191 -2.09289723 9.12524538 -2.125 7.6875 C-2.14820313 6.88699219 -2.17140625 6.08648438 -2.1953125 5.26171875 C-2 3 -2 3 0 0 Z " fill="#F8D274" transform="translate(840,522)"/>
<path d="M0 0 C0.99 0.33 1.98 0.66 3 1 C2.1875 3.4375 2.1875 3.4375 1 6 C0.01 6.33 -0.98 6.66 -2 7 C-1.125 2.25 -1.125 2.25 0 0 Z " fill="#3B4852" transform="translate(843,851)"/>
<path d="M0 0 C1.65 0 3.3 0 5 0 C4.34 1.32 3.68 2.64 3 4 C1.68 4 0.36 4 -1 4 C-0.67 2.68 -0.34 1.36 0 0 Z " fill="#06883C" transform="translate(775,310)"/>
<path d="M0 0 C0.33 0.66 0.66 1.32 1 2 C-0.65 3.98 -2.3 5.96 -4 8 C-4.66 7.34 -5.32 6.68 -6 6 C-4.02 4.02 -2.04 2.04 0 0 Z " fill="#2B3A42" transform="translate(426,831)"/>
<path d="M0 0 C1.98 0 3.96 0 6 0 C4.35 1.65 2.7 3.3 1 5 C0.34 4.67 -0.32 4.34 -1 4 C-0.67 2.68 -0.34 1.36 0 0 Z " fill="#E2952E" transform="translate(735,690)"/>
<path d="M0 0 C1.32 0.33 2.64 0.66 4 1 C2.84826645 3.46800047 1.95216435 5.04783565 0 7 C0 4.69 0 2.38 0 0 Z " fill="#EA9D2B" transform="translate(834,591)"/>
<path d="M0 0 C3.3566285 2.23775234 3.57996014 2.93320048 4.6875 6.625 C4.93886719 7.44226563 5.19023438 8.25953125 5.44921875 9.1015625 C5.72185547 10.04128906 5.72185547 10.04128906 6 11 C3.44706986 8.54003371 1.65756954 6.15727531 0 3 C0 2.01 0 1.02 0 0 Z " fill="#FAE391" transform="translate(820,439)"/>
<path d="M0 0 C0 3.62453269 -0.92469613 5.07920195 -3 8 C-3.99 8.33 -4.98 8.66 -6 9 C-4.47291037 5.56404834 -2.40072955 2.88087546 0 0 Z " fill="#DE8D2D" transform="translate(658,425)"/>
<path d="M0 0 C2.31 0.33 4.62 0.66 7 1 C3.5647952 3.29013653 2.014669 3.17842973 -2 3 C-1.34 2.67 -0.68 2.34 0 2 C0 1.34 0 0.68 0 0 Z " fill="#13874A" transform="translate(726,368)"/>
</svg>
